<svg width="180" height="40" viewBox="0 0 180 40" fill="none" xmlns="http://www.w3.org/2000/svg">
  <rect width="40" height="40" rx="8" fill="#4F46E5"/>
  <path d="M14.9938 27V12.375H20.2378C21.8638 12.375 23.0638 12.753 23.8378 13.509C24.6118 14.265 24.9988 15.279 24.9988 16.551C24.9988 17.451 24.7878 18.207 24.3658 18.819C23.9438 19.431 23.3618 19.857 22.6198 20.097L25.5958 27H23.2118L20.4498 20.655H16.8838V27H14.9938ZM16.8838 18.945H19.9978C20.8818 18.945 21.5578 18.711 22.0258 18.243C22.4938 17.775 22.7278 17.157 22.7278 16.389C22.7278 15.621 22.4938 15.003 22.0258 14.535C21.5578 14.067 20.8818 13.833 19.9978 13.833H16.8838V18.945Z" fill="white"/>
  <text x="50" y="27" font-family="Arial, sans-serif" font-size="20" fill="#101828">ACE Rental</text>
</svg>
